<?xml version="1.0" encoding="utf-8"?>
<!-- Svg Vector Icons : http://www.onlinewebfonts.com/icon -->
<!DOCTYPE svg PUBLIC "-//W3C//DTD SVG 1.1//EN" "http://www.w3.org/Graphics/SVG/1.1/DTD/svg11.dtd">
<svg version="1.1" xmlns="http://www.w3.org/2000/svg" xmlns:xlink="http://www.w3.org/1999/xlink" x="0px" y="0px" viewBox="0 0 1000 1000" enable-background="new 0 0 1000 1000" xml:space="preserve">
<metadata> Svg Vector Icons : http://www.onlinewebfonts.com/icon </metadata>
<g><path d="M780,430c-51.7,0-96.9,28.2-121.2,70h-21c-92.9,0-175-39.2-244-116.4c-44.5-49.8-73.3-106.9-82.8-127.4c30-25.7,49-63.8,49-106.2c0-77.2-62.8-140-140-140C142.8,10,80,72.8,80,150c0,51.7,28.2,96.9,70,121.2v457.7c-41.8,24.2-70,69.5-70,121.2c0,77.2,62.8,140,140,140c77.2,0,140-62.8,140-140c0-51.7-28.2-96.9-70-121.2V477.5C385.3,583.8,505.4,640,637.8,640h21c24.2,41.8,69.5,70,121.2,70c77.2,0,140-62.8,140-140C920,492.8,857.2,430,780,430z M220,80c38.7,0,70,31.3,70,70c0,38.7-31.3,70-70,70c-38.7,0-70-31.3-70-70C150,111.3,181.3,80,220,80z M220,920c-38.7,0-70-31.3-70-70c0-38.7,31.3-70,70-70c38.7,0,70,31.3,70,70C290,888.7,258.7,920,220,920z M780,640c-38.7,0-70-31.3-70-70c0-38.7,31.3-70,70-70s70,31.3,70,70C850,608.7,818.7,640,780,640z"/></g>
</svg>